<svg width="211" height="210" viewBox="0 0 211 210" fill="none" xmlns="http://www.w3.org/2000/svg">
<path d="M21.5856 76.5367C35.8109 84.512 66.6656 98.0781 102.95 89.7826C137.154 81.9627 158.822 53.0263 166.648 40.8539L137.453 21.5417C131.046 31.6251 115.737 50.9565 95.1506 55.6634C71.0121 61.1821 49.4135 52.0349 38.5999 45.9501L21.5856 76.5367Z" fill="#257BF4"/>
<path d="M71.4423 69.1442C53.9035 87.7991 29.8751 91.9213 17.8555 92.7003L20.303 127.615C35.8385 126.584 70.5158 121.225 96.941 93.1186C120.653 67.8973 122.774 32.4155 122.547 17.5764L87.5377 17.4073C87.8182 29.4138 85.8372 53.8331 71.4423 69.1442Z" fill="#F19A0B"/>
<path d="M120.793 41.3718C118.283 56.7329 112.426 75.2548 99.2475 90.5523C78.491 94.5027 59.6789 91.4598 44.9732 86.7277C53.9705 83.2067 63.3903 77.7067 71.442 69.1427C74.7615 65.6119 77.4191 61.5956 79.5428 57.3599C84.5601 57.3862 89.7927 56.8856 95.1504 55.6607C105.054 53.3964 113.736 47.7473 120.793 41.3718Z" fill="#1E2665"/>
<path d="M107.726 119.13C73.2664 127.009 51.5307 156.321 43.8552 168.33L73.37 187.141C79.8617 176.997 95.0945 157.921 115.526 153.25C139.627 147.739 161.197 156.85 172.027 162.935L189.039 132.347C174.79 124.368 143.967 110.845 107.726 119.13Z" fill="#E95304"/>
<path d="M113.735 115.796C89.8552 141.195 87.8736 177.001 88.1343 191.65L123.146 191.818C122.825 179.927 124.714 155.215 139.234 139.77C156.643 121.253 180.446 117.055 192.552 116.232L190.373 81.2989C174.838 82.3307 140.161 87.6892 113.735 115.796Z" fill="#41CAA0"/>
<path d="M111.43 118.356C132.188 114.405 151.002 117.449 165.708 122.181C156.709 125.702 147.287 131.203 139.234 139.769C135.915 143.299 133.257 147.314 131.133 151.548C126.116 151.522 120.883 152.024 115.526 153.249C105.623 155.513 96.9418 161.16 89.8851 167.534C92.3961 152.173 98.2516 133.652 111.43 118.356Z" fill="#19575C"/>
</svg>
