<svg width="1344" height="300" viewBox="0 0 1344 300" fill="none" xmlns="http://www.w3.org/2000/svg">
<path d="M1343.42 152.4V167H1221.82C1222.62 171 1223.89 174.733 1225.62 178.2C1227.49 181.533 1229.56 184.4 1231.82 186.8C1234.36 189.467 1237.02 191.667 1239.82 193.4C1242.62 195.133 1246.02 196.467 1250.02 197.4C1251.76 197.933 1253.56 198.333 1255.42 198.6C1257.42 198.867 1259.49 199 1261.62 199C1268.02 199 1273.89 197.933 1279.22 195.8C1284.56 193.667 1288.89 190.667 1292.22 186.8C1293.02 185.867 1293.76 184.867 1294.42 183.8C1295.09 182.733 1295.69 181.667 1296.22 180.6H1342.02C1340.16 188.867 1337.42 196.067 1333.82 202.2C1330.22 208.333 1326.22 213.467 1321.82 217.6C1316.76 222.667 1311.02 227 1304.62 230.6C1298.36 234.2 1291.49 237 1284.02 239C1280.42 239.933 1276.69 240.667 1272.82 241.2C1268.96 241.733 1265.02 242 1261.02 242C1250.76 242 1241.42 240.533 1233.02 237.6C1224.76 234.533 1217.36 230.467 1210.82 225.4C1196.56 214.467 1186.76 199.867 1181.42 181.6C1178.76 172.533 1177.42 162.8 1177.42 152.4C1177.42 142.4 1178.82 132.8 1181.62 123.6C1184.42 114.4 1188.36 106.2 1193.42 99C1198.62 91.6667 1204.69 85.4 1211.62 80.2C1218.69 75 1226.42 71 1234.82 68.2C1243.36 65.4 1252.22 64 1261.42 64C1270.36 64 1279.09 65.5333 1287.62 68.6C1296.16 71.5333 1303.69 75.6667 1310.22 81C1317.02 86.6 1322.89 93 1327.82 100.2C1332.89 107.4 1336.76 115.533 1339.42 124.6C1342.09 133.4 1343.42 142.667 1343.42 152.4ZM1222.62 137H1299.22C1297.09 129.933 1293.49 123.867 1288.42 118.8C1283.49 113.867 1277.69 110.4 1271.02 108.4C1269.29 108 1267.56 107.667 1265.82 107.4C1264.09 107.133 1262.29 107 1260.42 107C1253.62 107 1247.09 108.8 1240.82 112.4C1238.56 113.733 1236.16 115.6 1233.62 118C1231.22 120.4 1229.02 123.4 1227.02 127C1225.16 130.333 1223.69 133.667 1222.62 137Z" fill="#1a1d24"/>
<path d="M1162.38 240H1117.38V0H1162.38V240Z" fill="#1a1d24"/>
<path d="M1056.99 163.4H1102.39C1102.12 172.867 1100.45 181.6 1097.39 189.6C1094.32 197.6 1090.39 204.733 1085.59 211C1080.65 217.4 1074.65 223 1067.59 227.8C1060.65 232.467 1053.39 235.933 1045.79 238.2C1041.79 239.4 1037.72 240.333 1033.59 241C1029.45 241.667 1025.19 242 1020.79 242C1002.39 242 985.788 236.333 970.988 225C964.188 219.8 958.188 213.333 952.988 205.6C947.788 197.733 943.921 189.467 941.388 180.8C938.721 171.867 937.388 162.267 937.388 152C937.388 141.733 938.788 132.133 941.588 123.2C944.388 114.267 948.321 106.2 953.388 99C958.188 91.8 964.054 85.6 970.988 80.4C977.921 75.2 985.654 71.1333 994.188 68.2C1002.72 65.4 1011.59 64 1020.79 64C1038.25 64 1053.85 68.6667 1067.59 78C1081.45 87.4667 1091.32 100.133 1097.19 116C1098.65 120 1099.79 124.2 1100.59 128.6C1101.52 133 1102.05 137.6 1102.19 142.4H1056.99C1056.72 138.533 1056.05 134.733 1054.99 131C1053.92 127.267 1052.25 123.867 1049.99 120.8C1045.59 114.8 1039.79 110.733 1032.59 108.6C1028.85 107.533 1024.99 107 1020.99 107C1016.59 107 1012.45 107.667 1008.59 109C1004.72 110.333 1001.05 112.4 997.588 115.2C994.254 117.867 991.388 121.2 988.988 125.2C986.721 129.2 985.121 133.333 984.188 137.6C983.654 140 983.188 142.467 982.788 145C982.521 147.533 982.388 150.2 982.388 153C982.388 158.2 982.921 163.267 983.988 168.2C985.188 173 986.988 177.267 989.388 181C994.054 188.733 1000.32 194 1008.19 196.8C1012.05 198.267 1016.32 199 1020.99 199C1025.52 199 1029.52 198.467 1032.99 197.4C1036.45 196.333 1039.59 194.733 1042.39 192.6C1048.25 188.333 1052.45 182.533 1054.99 175.2C1055.52 173.467 1055.92 171.6 1056.19 169.6C1056.59 167.6 1056.85 165.533 1056.99 163.4Z" fill="#1a1d24"/>
<path d="M850.281 66L865.081 158.8C865.481 161.067 865.881 164.267 866.281 168.4C866.815 172.533 867.215 176.067 867.481 179C867.748 183.267 867.948 186.8 868.081 189.6C868.348 192.4 868.615 195.933 868.881 200.2C868.881 201.933 868.881 203.6 868.881 205.2V210H872.081C872.081 206.533 872.081 204 872.081 202.4C872.215 200.8 872.281 199.2 872.281 197.6C872.415 196 872.615 193.333 872.881 189.6C872.881 187.867 873.015 185.733 873.281 183.2C873.548 180.533 873.815 177.867 874.081 175.2C874.348 172.533 874.615 170.267 874.881 168.4C875.015 166.8 875.148 165.2 875.281 163.6C875.548 161.867 875.815 160.267 876.081 158.8L891.281 66H935.281L890.081 300H845.081L861.081 240H838.881L805.281 66H850.281Z" fill="#1a1d24"/>
<path d="M757.964 163.4H803.364C803.098 172.867 801.431 181.6 798.364 189.6C795.298 197.6 791.364 204.733 786.564 211C781.631 217.4 775.631 223 768.564 227.8C761.631 232.467 754.364 235.933 746.764 238.2C742.764 239.4 738.698 240.333 734.564 241C730.431 241.667 726.164 242 721.764 242C703.364 242 686.764 236.333 671.964 225C665.164 219.8 659.164 213.333 653.964 205.6C648.764 197.733 644.898 189.467 642.364 180.8C639.698 171.867 638.364 162.267 638.364 152C638.364 141.733 639.764 132.133 642.564 123.2C645.364 114.267 649.298 106.2 654.364 99C659.164 91.8 665.031 85.6 671.964 80.4C678.898 75.2 686.631 71.1333 695.164 68.2C703.698 65.4 712.564 64 721.764 64C739.231 64 754.831 68.6667 768.564 78C782.431 87.4667 792.298 100.133 798.164 116C799.631 120 800.764 124.2 801.564 128.6C802.498 133 803.031 137.6 803.164 142.4H757.964C757.698 138.533 757.031 134.733 755.964 131C754.898 127.267 753.231 123.867 750.964 120.8C746.564 114.8 740.764 110.733 733.564 108.6C729.831 107.533 725.964 107 721.964 107C717.564 107 713.431 107.667 709.564 109C705.698 110.333 702.031 112.4 698.564 115.2C695.231 117.867 692.364 121.2 689.964 125.2C687.698 129.2 686.098 133.333 685.164 137.6C684.631 140 684.164 142.467 683.764 145C683.498 147.533 683.364 150.2 683.364 153C683.364 158.2 683.898 163.267 684.964 168.2C686.164 173 687.964 177.267 690.364 181C695.031 188.733 701.298 194 709.164 196.8C713.031 198.267 717.298 199 721.964 199C726.498 199 730.498 198.467 733.964 197.4C737.431 196.333 740.564 194.733 743.364 192.6C749.231 188.333 753.431 182.533 755.964 175.2C756.498 173.467 756.898 171.6 757.164 169.6C757.564 167.6 757.831 165.533 757.964 163.4Z" fill="#1a1d24"/>
<path d="M498.514 107C497.714 107 496.714 107.133 495.514 107.4C494.314 107.533 493.181 107.733 492.114 108C491.047 108.267 489.914 108.667 488.714 109.2C487.514 109.733 486.381 110.267 485.314 110.8C484.247 111.2 483.114 111.867 481.914 112.8V240H436.914V66H481.914C481.914 67.6 481.714 69 481.314 70.2C481.047 71.2667 480.647 72.6 480.114 74.2C479.447 76.3333 478.914 77.8667 478.514 78.8C478.114 79.6 477.381 81.1333 476.314 83.4C475.914 84.0667 475.514 84.8 475.114 85.6C474.714 86.2667 474.314 86.8667 473.914 87.4L476.314 89.4C478.181 86.6 480.514 83.7333 483.314 80.8C486.247 77.8667 488.981 75.4667 491.514 73.6C494.581 71.4667 497.514 69.7333 500.314 68.4C503.247 66.9333 506.314 65.8 509.514 65C510.981 64.7333 512.447 64.5333 513.914 64.4C515.514 64.1333 517.047 64 518.514 64C520.514 64 522.514 64.2667 524.514 64.8C526.647 65.2 528.781 65.8667 530.914 66.8C532.914 67.8667 534.714 69.1333 536.314 70.6C538.047 71.9333 539.647 73.4 541.114 75C541.781 75.9333 542.447 76.8667 543.114 77.8C543.647 78.8667 544.247 79.9333 544.914 81C547.181 79 549.781 77.0667 552.714 75.2C555.781 73.2 558.514 71.6 560.914 70.4C563.447 69.0667 566.247 67.8667 569.314 66.8C572.381 65.7333 575.247 65 577.914 64.6C579.381 64.4667 580.781 64.3333 582.114 64.2C583.581 64.0667 584.981 64 586.314 64C591.381 64 595.714 64.7333 599.314 66.2C603.047 67.5333 606.381 69.3333 609.314 71.6C612.247 74 614.781 77.0667 616.914 80.8C619.047 84.5333 620.581 88.5333 621.514 92.8C622.581 97.6 623.114 102.667 623.114 108V240H578.114V118C578.114 116.4 577.981 115.133 577.714 114.2C577.447 113.267 576.981 112.2 576.314 111C575.647 109.933 574.847 109.2 573.914 108.8C572.981 108.267 572.114 107.8 571.314 107.4C570.381 107.133 569.181 107 567.714 107C561.581 107 555.847 109.667 550.514 115V240H509.514V118C509.514 114.933 508.914 112.667 507.714 111.2C506.647 110.133 505.781 109.4 505.114 109C504.581 108.467 503.647 107.933 502.314 107.4C501.381 107.133 500.114 107 498.514 107Z" fill="#1a1d24"/>
<path d="M148.039 242C137.906 242 128.439 240.467 119.639 237.4C110.839 234.2 102.972 229.933 96.0391 224.6C88.8391 219.267 82.5057 213 77.0391 205.8C71.7057 198.6 67.5057 190.2 64.4391 180.6C61.5057 171.8 60.0391 162.4 60.0391 152.4C60.0391 142.8 61.5057 133.533 64.4391 124.6C67.3724 115.667 71.5057 107.533 76.8391 100.2C82.4391 92.6 88.9057 86.1333 96.2391 80.8C103.706 75.4667 111.639 71.4 120.039 68.6C124.439 67.1333 128.972 66 133.639 65.2C138.306 64.4 143.106 64 148.039 64C157.506 64 166.706 65.5333 175.639 68.6C184.706 71.6667 192.839 75.8 200.039 81C207.106 86.3333 213.372 92.7333 218.839 100.2C224.439 107.533 228.706 115.667 231.639 124.6C232.972 129 234.039 133.533 234.839 138.2C235.639 142.867 236.039 147.6 236.039 152.4C236.039 160.4 234.772 169 232.239 178.2C229.839 187.4 225.439 196.467 219.039 205.4C213.706 212.867 207.306 219.333 199.839 224.8C192.372 230.267 184.372 234.467 175.839 237.4C171.439 238.867 166.906 240 162.239 240.8C157.572 241.6 152.839 242 148.039 242ZM148.239 199C152.639 199 157.039 198.267 161.439 196.8C165.972 195.333 169.972 193.133 173.439 190.2C177.839 186.733 181.239 183 183.639 179C186.172 174.867 187.906 171.067 188.839 167.6C189.506 165.333 190.039 163 190.439 160.6C190.839 158.067 191.039 155.533 191.039 153C191.039 147.8 190.306 142.933 188.839 138.4C187.372 133.733 185.372 129.467 182.839 125.6C180.572 122.4 177.706 119.333 174.239 116.4C170.772 113.333 166.572 110.933 161.639 109.2C157.239 107.733 152.772 107 148.239 107C138.639 107 130.172 109.867 122.839 115.6C119.372 118.267 116.239 121.6 113.439 125.6C110.639 129.467 108.572 133.667 107.239 138.2C106.572 140.467 106.039 142.867 105.639 145.4C105.239 147.933 105.039 150.467 105.039 153C105.039 157.133 105.639 161.533 106.839 166.2C108.039 170.867 110.239 175.533 113.439 180.2C115.972 183.933 118.972 187.2 122.439 190C125.906 192.8 129.972 195 134.639 196.6C139.039 198.2 143.572 199 148.239 199Z" fill="#1a1d24"/>
<path d="M45 240H0V0H45V240Z" fill="#1a1d24"/>
<path d="M251.958 125.439C266.183 133.414 297.038 146.98 333.323 138.685C367.526 130.865 389.194 101.929 397.02 89.7562L367.826 70.444C361.419 80.5275 346.11 99.8588 325.523 104.566C301.385 110.084 279.786 100.937 268.972 94.8525L251.958 125.439Z" fill="#257BF4"/>
<path d="M301.815 118.047C284.276 136.701 260.248 140.824 248.228 141.603L250.676 176.518C266.211 175.486 300.888 170.127 327.314 142.021C351.026 116.8 353.146 81.3179 352.92 66.4788L317.91 66.3096C318.191 78.3161 316.21 102.735 301.815 118.047Z" fill="#F19A0B"/>
<path d="M351.166 90.2741C348.656 105.635 342.799 124.157 329.62 139.455C308.864 143.405 290.051 140.362 275.346 135.63C284.343 132.109 293.763 126.609 301.815 118.045C305.134 114.514 307.792 110.498 309.915 106.262C314.933 106.288 320.165 105.788 325.523 104.563C335.427 102.299 344.109 96.6496 351.166 90.2741Z" fill="#1E2665"/>
<path d="M338.099 168.033C303.639 175.911 281.903 205.223 274.228 217.232L303.743 236.044C310.234 225.899 325.467 206.823 345.898 202.152C370 196.642 391.569 205.753 402.399 211.837L419.411 181.25C405.163 173.27 374.339 159.747 338.099 168.033Z" fill="#E95304"/>
<path d="M344.108 164.698C320.228 190.098 318.246 225.903 318.507 240.552L353.519 240.72C353.197 228.829 355.086 204.117 369.607 188.672C387.016 170.155 410.819 165.957 422.925 165.134L420.746 130.201C405.211 131.233 370.533 136.591 344.108 164.698Z" fill="#41CAA0"/>
<path d="M341.803 167.258C362.561 163.308 381.374 166.351 396.08 171.084C387.082 174.605 377.659 180.105 369.606 188.671C366.287 192.201 363.629 196.216 361.506 200.451C356.488 200.424 351.256 200.926 345.898 202.151C335.996 204.415 327.314 210.062 320.258 216.436C322.769 201.075 328.624 182.554 341.803 167.258Z" fill="#19575C"/>
</svg>
